# MagicaVoxel @ Ephtracy

# group
o 

# material
mtllib 3x3x3.mtl
usemtl palette

# normals
vn -1 0 0
vn 1 0 0
vn 0 0 1
vn 0 0 -1
vn 0 -1 0
vn 0 1 0

# texcoords
vt 0.767578 0.5
vt 0.794922 0.5
vt 0.818359 0.5
vt 0.869141 0.5

# verts
v -1 0 1
v -1 0 -1
v -1 1.1 0.5
v -1 1.1 0.4
v -1 1.2 0.5
v -1 1.2 0.4
v -1 1.2 0.1
v -1 1.2 0
v -1 1.2 -0.3
v -1 1.2 -0.4
v -1 1.3 0.7
v -1 1.3 0.6
v -1 1.3 0.1
v -1 1.3 0
v -1 1.3 -0.3
v -1 1.3 -0.4
v -1 1.3 -0.5
v -1 1.3 -0.6
v -1 1.4 1
v -1 1.4 0.7
v -1 1.4 0.6
v -1 1.4 -0.5
v -1 1.4 -0.6
v -1 1.4 -1
v -1 1.5 0.3
v -1 1.5 0.2
v -1 1.5 -0.2
v -1 1.5 -0.3
v -1 1.6 0.3
v -1 1.6 0.2
v -1 1.6 -0.2
v -1 1.6 -0.3
v -1 1.6 -0.4
v -1 1.6 -0.5
v -1 1.7 1
v -1 1.7 -0.4
v -1 1.7 -0.5
v -1 1.7 -1
v -1 1.9 1
v -1 1.9 -1
v -1 2 1
v -1 2 -1
v 1 0 1
v 1 0 -1
v 1 1.1 -0.5
v 1 1.1 -0.6
v 1 1.1 -0.7
v 1 1.1 -0.8
v 1 1.2 0.8
v 1 1.2 0.7
v 1 1.2 0.5
v 1 1.2 0.4
v 1 1.2 -0.5
v 1 1.2 -0.6
v 1 1.2 -0.7
v 1 1.2 -0.8
v 1 1.3 0.8
v 1 1.3 0.7
v 1 1.3 0.5
v 1 1.3 0.4
v 1 1.3 0.3
v 1 1.3 -0.2
v 1 1.3 -0.3
v 1 1.4 1
v 1 1.4 0.4
v 1 1.4 0.3
v 1 1.4 -0.2
v 1 1.4 -0.3
v 1 1.4 -1
v 1 1.5 0
v 1 1.5 -0.1
v 1 1.6 0.4
v 1 1.6 0.3
v 1 1.6 0
v 1 1.6 -0.1
v 1 1.6 -0.3
v 1 1.6 -0.4
v 1 1.7 1
v 1 1.7 0.4
v 1 1.7 0.3
v 1 1.7 -0.3
v 1 1.7 -0.4
v 1 1.7 -1
v 1 1.9 1
v 1 1.9 -1
v 1 2 1
v 1 2 -1
v -1 0 1
v -1 1.4 1
v -1 1.7 1
v -1 1.9 1
v -1 2 1
v -0.9 1.2 1
v -0.9 1.3 1
v -0.8 1.2 1
v -0.8 1.3 1
v -0.8 1.4 1
v -0.7 1.3 1
v -0.7 1.4 1
v -0.2 1.3 1
v -0.2 1.4 1
v -0.2 1.6 1
v -0.2 1.7 1
v -0.1 1.3 1
v -0.1 1.4 1
v -0.1 1.6 1
v -0.1 1.7 1
v 0.1 1.6 1
v 0.1 1.7 1
v 0.2 1.6 1
v 0.2 1.7 1
v 0.3 1.1 1
v 0.3 1.2 1
v 0.4 1.1 1
v 0.4 1.2 1
v 0.5 1.5 1
v 0.5 1.6 1
v 0.6 1.3 1
v 0.6 1.4 1
v 0.6 1.5 1
v 0.6 1.6 1
v 0.7 1.3 1
v 0.7 1.4 1
v 1 0 1
v 1 1.4 1
v 1 1.7 1
v 1 1.9 1
v 1 2 1
v -1 0 -1
v -1 1.4 -1
v -1 1.7 -1
v -1 1.9 -1
v -1 2 -1
v -0.8 1.3 -1
v -0.8 1.4 -1
v -0.7 1.1 -1
v -0.7 1.2 -1
v -0.7 1.3 -1
v -0.7 1.4 -1
v -0.6 1.1 -1
v -0.6 1.2 -1
v -0.6 1.3 -1
v -0.6 1.4 -1
v -0.5 1.3 -1
v -0.5 1.4 -1
v -0.5 1.6 -1
v -0.5 1.7 -1
v -0.4 1.6 -1
v -0.4 1.7 -1
v -0.2 1.1 -1
v -0.2 1.2 -1
v -0.1 1.1 -1
v -0.1 1.2 -1
v 0.3 1.6 -1
v 0.3 1.7 -1
v 0.4 1.6 -1
v 0.4 1.7 -1
v 0.5 1.2 -1
v 0.5 1.3 -1
v 0.6 1.2 -1
v 0.6 1.3 -1
v 0.6 1.4 -1
v 0.6 1.6 -1
v 0.6 1.7 -1
v 0.7 1.3 -1
v 0.7 1.4 -1
v 0.7 1.6 -1
v 0.7 1.7 -1
v 1 0 -1
v 1 1.4 -1
v 1 1.7 -1
v 1 1.9 -1
v 1 2 -1
v -1 0 1
v 1 0 1
v -1 0 -1
v 1 0 -1
v -1 2 1
v 1 2 1
v -1 2 -1
v 1 2 -1

# faces
f 3/4/1 2/4/1 1/4/1
f 4/4/1 2/4/1 3/4/1
f 5/4/1 3/4/1 1/4/1
f 5/1/1 4/1/1 3/1/1
f 6/4/1 2/4/1 4/4/1
f 6/1/1 4/1/1 5/1/1
f 7/4/1 2/4/1 6/4/1
f 8/4/1 2/4/1 7/4/1
f 9/4/1 2/4/1 8/4/1
f 10/4/1 2/4/1 9/4/1
f 11/4/1 5/4/1 1/4/1
f 11/4/1 6/4/1 5/4/1
f 11/4/1 7/4/1 6/4/1
f 12/4/1 7/4/1 11/4/1
f 13/1/1 8/1/1 7/1/1
f 13/4/1 7/4/1 12/4/1
f 14/4/1 9/4/1 8/4/1
f 14/1/1 8/1/1 13/1/1
f 15/1/1 10/1/1 9/1/1
f 15/4/1 9/4/1 14/4/1
f 16/4/1 2/4/1 10/4/1
f 16/1/1 10/1/1 15/1/1
f 17/4/1 2/4/1 16/4/1
f 18/4/1 2/4/1 17/4/1
f 19/4/1 11/4/1 1/4/1
f 20/1/1 12/1/1 11/1/1
f 20/4/1 11/4/1 19/4/1
f 21/4/1 15/4/1 14/4/1
f 21/1/1 12/1/1 20/1/1
f 21/4/1 14/4/1 13/4/1
f 21/4/1 13/4/1 12/4/1
f 21/4/1 17/4/1 16/4/1
f 21/4/1 16/4/1 15/4/1
f 22/1/1 18/1/1 17/1/1
f 22/4/1 17/4/1 21/4/1
f 23/4/1 2/4/1 18/4/1
f 23/1/1 18/1/1 22/1/1
f 24/4/1 2/4/1 23/4/1
f 25/1/1 20/1/1 19/1/1
f 25/1/1 21/1/1 20/1/1
f 25/1/1 24/1/1 23/1/1
f 25/1/1 23/1/1 22/1/1
f 25/1/1 22/1/1 21/1/1
f 26/1/1 24/1/1 25/1/1
f 27/1/1 24/1/1 26/1/1
f 28/1/1 24/1/1 27/1/1
f 29/1/1 25/1/1 19/1/1
f 29/2/1 26/2/1 25/2/1
f 30/1/1 27/1/1 26/1/1
f 30/2/1 26/2/1 29/2/1
f 31/2/1 28/2/1 27/2/1
f 31/1/1 27/1/1 30/1/1
f 32/1/1 24/1/1 28/1/1
f 32/2/1 28/2/1 31/2/1
f 33/1/1 24/1/1 32/1/1
f 34/1/1 24/1/1 33/1/1
f 35/1/1 31/1/1 30/1/1
f 35/1/1 30/1/1 29/1/1
f 35/1/1 29/1/1 19/1/1
f 35/1/1 33/1/1 32/1/1
f 35/1/1 32/1/1 31/1/1
f 36/2/1 34/2/1 33/2/1
f 36/1/1 33/1/1 35/1/1
f 37/1/1 24/1/1 34/1/1
f 37/2/1 34/2/1 36/2/1
f 38/1/1 24/1/1 37/1/1
f 39/2/1 36/2/1 35/2/1
f 39/2/1 37/2/1 36/2/1
f 39/2/1 38/2/1 37/2/1
f 40/2/1 38/2/1 39/2/1
f 41/3/1 40/3/1 39/3/1
f 42/3/1 40/3/1 41/3/1
f 43/4/2 44/4/2 45/4/2
f 45/4/2 44/4/2 46/4/2
f 46/4/2 44/4/2 47/4/2
f 47/4/2 44/4/2 48/4/2
f 43/4/2 45/4/2 49/4/2
f 49/4/2 45/4/2 50/4/2
f 50/4/2 45/4/2 51/4/2
f 51/4/2 45/4/2 52/4/2
f 45/1/2 46/1/2 53/1/2
f 52/4/2 45/4/2 53/4/2
f 46/4/2 47/4/2 54/4/2
f 53/1/2 46/1/2 54/1/2
f 47/1/2 48/1/2 55/1/2
f 54/4/2 47/4/2 55/4/2
f 48/4/2 44/4/2 56/4/2
f 55/1/2 48/1/2 56/1/2
f 43/4/2 49/4/2 57/4/2
f 49/1/2 50/1/2 57/1/2
f 50/4/2 51/4/2 58/4/2
f 57/1/2 50/1/2 58/1/2
f 51/1/2 52/1/2 59/1/2
f 58/4/2 51/4/2 59/4/2
f 54/4/2 55/4/2 60/4/2
f 59/1/2 52/1/2 60/1/2
f 52/4/2 53/4/2 60/4/2
f 53/4/2 54/4/2 60/4/2
f 55/4/2 56/4/2 60/4/2
f 60/4/2 56/4/2 61/4/2
f 61/4/2 56/4/2 62/4/2
f 62/4/2 56/4/2 63/4/2
f 58/4/2 59/4/2 64/4/2
f 57/4/2 58/4/2 64/4/2
f 43/4/2 57/4/2 64/4/2
f 59/4/2 60/4/2 64/4/2
f 60/1/2 61/1/2 65/1/2
f 64/4/2 60/4/2 65/4/2
f 61/4/2 62/4/2 66/4/2
f 65/1/2 61/1/2 66/1/2
f 62/1/2 63/1/2 67/1/2
f 66/4/2 62/4/2 67/4/2
f 63/4/2 56/4/2 68/4/2
f 67/1/2 63/1/2 68/1/2
f 56/4/2 44/4/2 69/4/2
f 68/4/2 56/4/2 69/4/2
f 66/1/2 67/1/2 70/1/2
f 65/1/2 66/1/2 70/1/2
f 68/1/2 69/1/2 70/1/2
f 64/1/2 65/1/2 70/1/2
f 67/1/2 68/1/2 70/1/2
f 70/1/2 69/1/2 71/1/2
f 64/1/2 70/1/2 72/1/2
f 72/1/2 70/1/2 73/1/2
f 70/2/2 71/2/2 74/2/2
f 73/1/2 70/1/2 74/1/2
f 71/1/2 69/1/2 75/1/2
f 74/2/2 71/2/2 75/2/2
f 75/1/2 69/1/2 76/1/2
f 76/1/2 69/1/2 77/1/2
f 64/1/2 72/1/2 78/1/2
f 72/2/2 73/2/2 79/2/2
f 78/1/2 72/1/2 79/1/2
f 73/1/2 74/1/2 80/1/2
f 79/2/2 73/2/2 80/2/2
f 74/1/2 75/1/2 80/1/2
f 75/1/2 76/1/2 80/1/2
f 76/2/2 77/2/2 81/2/2
f 80/1/2 76/1/2 81/1/2
f 77/1/2 69/1/2 82/1/2
f 81/2/2 77/2/2 82/2/2
f 82/1/2 69/1/2 83/1/2
f 78/2/2 79/2/2 84/2/2
f 80/2/2 81/2/2 84/2/2
f 82/2/2 83/2/2 84/2/2
f 81/2/2 82/2/2 84/2/2
f 79/2/2 80/2/2 84/2/2
f 84/2/2 83/2/2 85/2/2
f 84/3/2 85/3/2 86/3/2
f 86/3/2 85/3/2 87/3/2
f 93/4/3 89/4/3 88/4/3
f 94/4/3 89/4/3 93/4/3
f 95/4/3 93/4/3 88/4/3
f 95/1/3 94/1/3 93/1/3
f 96/4/3 89/4/3 94/4/3
f 96/1/3 94/1/3 95/1/3
f 97/1/3 90/1/3 89/1/3
f 97/4/3 89/4/3 96/4/3
f 98/4/3 96/4/3 95/4/3
f 98/1/3 97/1/3 96/1/3
f 99/1/3 90/1/3 97/1/3
f 99/1/3 97/1/3 98/1/3
f 100/4/3 98/4/3 95/4/3
f 100/4/3 99/4/3 98/4/3
f 101/1/3 90/1/3 99/1/3
f 101/4/3 99/4/3 100/4/3
f 102/1/3 90/1/3 101/1/3
f 103/2/3 91/2/3 90/2/3
f 103/1/3 90/1/3 102/1/3
f 104/4/3 100/4/3 95/4/3
f 104/1/3 102/1/3 101/1/3
f 104/1/3 101/1/3 100/1/3
f 105/1/3 102/1/3 104/1/3
f 106/2/3 103/2/3 102/2/3
f 106/1/3 102/1/3 105/1/3
f 107/2/3 91/2/3 103/2/3
f 107/2/3 103/2/3 106/2/3
f 108/1/3 106/1/3 105/1/3
f 108/1/3 107/1/3 106/1/3
f 109/2/3 91/2/3 107/2/3
f 109/1/3 107/1/3 108/1/3
f 110/1/3 108/1/3 105/1/3
f 110/2/3 109/2/3 108/2/3
f 111/2/3 91/2/3 109/2/3
f 111/2/3 109/2/3 110/2/3
f 112/4/3 105/4/3 104/4/3
f 112/4/3 95/4/3 88/4/3
f 112/4/3 104/4/3 95/4/3
f 113/4/3 105/4/3 112/4/3
f 114/4/3 112/4/3 88/4/3
f 114/1/3 113/1/3 112/1/3
f 115/4/3 105/4/3 113/4/3
f 115/1/3 113/1/3 114/1/3
f 116/1/3 110/1/3 105/1/3
f 116/1/3 111/1/3 110/1/3
f 117/1/3 111/1/3 116/1/3
f 118/4/3 105/4/3 115/4/3
f 118/4/3 115/4/3 114/4/3
f 119/1/3 116/1/3 105/1/3
f 119/4/3 105/4/3 118/4/3
f 120/2/3 117/2/3 116/2/3
f 120/1/3 116/1/3 119/1/3
f 121/1/3 111/1/3 117/1/3
f 121/2/3 117/2/3 120/2/3
f 122/1/3 120/1/3 119/1/3
f 122/1/3 119/1/3 118/1/3
f 122/1/3 121/1/3 120/1/3
f 122/4/3 118/4/3 114/4/3
f 123/1/3 121/1/3 122/1/3
f 124/4/3 114/4/3 88/4/3
f 124/4/3 122/4/3 114/4/3
f 124/4/3 123/4/3 122/4/3
f 125/1/3 121/1/3 123/1/3
f 125/4/3 123/4/3 124/4/3
f 126/1/3 111/1/3 121/1/3
f 126/1/3 121/1/3 125/1/3
f 126/2/3 91/2/3 111/2/3
f 127/3/3 92/3/3 91/3/3
f 127/2/3 91/2/3 126/2/3
f 128/3/3 92/3/3 127/3/3
f 129/4/4 130/4/4 134/4/4
f 130/1/4 131/1/4 135/1/4
f 134/4/4 130/4/4 135/4/4
f 129/4/4 134/4/4 136/4/4
f 136/4/4 134/4/4 137/4/4
f 134/1/4 135/1/4 138/1/4
f 137/4/4 134/4/4 138/4/4
f 135/1/4 131/1/4 139/1/4
f 138/1/4 135/1/4 139/1/4
f 136/1/4 137/1/4 140/1/4
f 129/4/4 136/4/4 140/4/4
f 137/4/4 138/4/4 141/4/4
f 140/1/4 137/1/4 141/1/4
f 138/4/4 139/4/4 141/4/4
f 141/4/4 139/4/4 142/4/4
f 139/1/4 131/1/4 143/1/4
f 142/4/4 139/4/4 143/4/4
f 141/4/4 142/4/4 144/4/4
f 140/4/4 141/4/4 144/4/4
f 142/1/4 143/1/4 144/1/4
f 143/1/4 131/1/4 145/1/4
f 144/1/4 143/1/4 145/1/4
f 145/1/4 131/1/4 146/1/4
f 131/2/4 132/2/4 147/2/4
f 146/1/4 131/1/4 147/1/4
f 145/1/4 146/1/4 148/1/4
f 146/2/4 147/2/4 148/2/4
f 147/2/4 132/2/4 149/2/4
f 148/2/4 147/2/4 149/2/4
f 129/4/4 140/4/4 150/4/4
f 140/4/4 144/4/4 150/4/4
f 144/4/4 145/4/4 150/4/4
f 150/4/4 145/4/4 151/4/4
f 129/4/4 150/4/4 152/4/4
f 150/1/4 151/1/4 152/1/4
f 151/4/4 145/4/4 153/4/4
f 152/1/4 151/1/4 153/1/4
f 145/1/4 148/1/4 154/1/4
f 148/1/4 149/1/4 154/1/4
f 149/2/4 132/2/4 155/2/4
f 154/1/4 149/1/4 155/1/4
f 145/1/4 154/1/4 156/1/4
f 154/2/4 155/2/4 156/2/4
f 155/2/4 132/2/4 157/2/4
f 156/2/4 155/2/4 157/2/4
f 153/4/4 145/4/4 158/4/4
f 152/4/4 153/4/4 158/4/4
f 158/4/4 145/4/4 159/4/4
f 152/4/4 158/4/4 160/4/4
f 158/1/4 159/1/4 160/1/4
f 159/4/4 145/4/4 161/4/4
f 160/1/4 159/1/4 161/1/4
f 145/1/4 156/1/4 162/1/4
f 161/4/4 145/4/4 162/4/4
f 156/1/4 157/1/4 162/1/4
f 162/1/4 157/1/4 163/1/4
f 157/2/4 132/2/4 164/2/4
f 163/1/4 157/1/4 164/1/4
f 160/4/4 161/4/4 165/4/4
f 162/1/4 163/1/4 165/1/4
f 161/1/4 162/1/4 165/1/4
f 165/1/4 163/1/4 166/1/4
f 163/2/4 164/2/4 167/2/4
f 166/1/4 163/1/4 167/1/4
f 164/2/4 132/2/4 168/2/4
f 167/2/4 164/2/4 168/2/4
f 165/4/4 166/4/4 169/4/4
f 152/4/4 160/4/4 169/4/4
f 129/4/4 152/4/4 169/4/4
f 160/4/4 165/4/4 169/4/4
f 166/1/4 167/1/4 170/1/4
f 169/4/4 166/4/4 170/4/4
f 167/1/4 168/1/4 170/1/4
f 168/2/4 132/2/4 171/2/4
f 170/1/4 168/1/4 171/1/4
f 132/3/4 133/3/4 172/3/4
f 171/2/4 132/2/4 172/2/4
f 172/3/4 133/3/4 173/3/4
f 176/4/5 175/4/5 174/4/5
f 177/4/5 175/4/5 176/4/5
f 178/3/6 179/3/6 180/3/6
f 180/3/6 179/3/6 181/3/6
