# MagicaVoxel @ Ephtracy

# group
o 

# material
mtllib chr_knight.mtl
usemtl palette

# normals
vn -1 0 0
vn 1 0 0
vn 0 0 1
vn 0 0 -1
vn 0 -1 0
vn 0 1 0

# texcoords
vt 0.841797 0.5
vt 0.966797 0.5
vt 0.990234 0.5
vt 0.994141 0.5

# verts
v -0.8 0 0.7
v -0.8 0 -0.6
v -0.8 0.1 0.7
v -0.8 0.1 0.5
v -0.8 0.2 0.5
v -0.8 0.2 0.3
v -0.8 0.3 0.3
v -0.8 0.3 0.1
v -0.8 0.3 -0.6
v -0.8 0.4 0.1
v -0.8 0.4 0
v -0.8 0.5 0
v -0.8 0.5 -0.6
v -0.8 1.7 0.4
v -0.8 1.7 -0.8
v -0.8 1.8 0.4
v -0.8 1.8 -0.8
v -0.7 0.5 -0.1
v -0.7 0.5 -0.5
v -0.7 1.2 0.3
v -0.7 1.2 -0.1
v -0.7 1.2 -0.5
v -0.7 1.2 -0.7
v -0.7 1.7 0.3
v -0.7 1.7 -0.7
v -0.7 1.8 0.3
v -0.7 1.8 -0.7
v -0.7 1.9 0.3
v -0.7 1.9 -0.7
v -0.6 1.9 0.2
v -0.6 1.9 -0.6
v -0.6 2 0.2
v -0.6 2 -0.6
v -0.5 1.5 0.4
v -0.5 1.5 0.3
v -0.5 1.7 0.4
v -0.5 1.7 0.3
v 0.2 0 0.7
v 0.2 0 -0.6
v 0.2 0.1 0.7
v 0.2 0.1 0.5
v 0.2 0.2 0.5
v 0.2 0.2 0.3
v 0.2 0.3 0.3
v 0.2 0.3 0.1
v 0.2 0.3 -0.6
v 0.2 0.4 0.1
v 0.2 0.4 0
v 0.2 0.5 0
v 0.2 0.5 -0.6
v 0.3 0.5 -0.1
v 0.3 0.5 -0.5
v 0.3 0.9 -0.1
v 0.3 0.9 -0.5
v 0.3 1.5 0.4
v 0.3 1.5 0.3
v 0.3 1.7 0.4
v 0.3 1.7 0.3
v -0.3 0.5 -0.1
v -0.3 0.5 -0.5
v -0.3 0.9 -0.1
v -0.3 0.9 -0.5
v -0.3 1.5 0.4
v -0.3 1.5 0.3
v -0.3 1.7 0.4
v -0.3 1.7 0.3
v -0.2 0 0.7
v -0.2 0 -0.6
v -0.2 0.1 0.7
v -0.2 0.1 0.5
v -0.2 0.2 0.5
v -0.2 0.2 0.3
v -0.2 0.3 0.3
v -0.2 0.3 0.1
v -0.2 0.3 -0.6
v -0.2 0.4 0.1
v -0.2 0.4 0
v -0.2 0.5 0
v -0.2 0.5 -0.6
v 0.5 1.5 0.4
v 0.5 1.5 0.3
v 0.5 1.7 0.4
v 0.5 1.7 0.3
v 0.6 1.9 0.2
v 0.6 1.9 -0.6
v 0.6 2 0.2
v 0.6 2 -0.6
v 0.7 0.5 -0.1
v 0.7 0.5 -0.5
v 0.7 1.2 0.3
v 0.7 1.2 -0.1
v 0.7 1.2 -0.5
v 0.7 1.2 -0.7
v 0.7 1.7 0.3
v 0.7 1.7 -0.7
v 0.7 1.8 0.3
v 0.7 1.8 -0.7
v 0.7 1.9 0.3
v 0.7 1.9 -0.7
v 0.8 0 0.7
v 0.8 0 -0.6
v 0.8 0.1 0.7
v 0.8 0.1 0.5
v 0.8 0.2 0.5
v 0.8 0.2 0.3
v 0.8 0.3 0.3
v 0.8 0.3 0.1
v 0.8 0.3 -0.6
v 0.8 0.4 0.1
v 0.8 0.4 0
v 0.8 0.5 0
v 0.8 0.5 -0.6
v 0.8 1.7 0.4
v 0.8 1.7 -0.8
v 0.8 1.8 0.4
v 0.8 1.8 -0.8
v -0.8 0 0.7
v -0.8 0.1 0.7
v -0.2 0 0.7
v -0.2 0.1 0.7
v 0.2 0 0.7
v 0.2 0.1 0.7
v 0.8 0 0.7
v 0.8 0.1 0.7
v -0.8 0.1 0.5
v -0.8 0.2 0.5
v -0.2 0.1 0.5
v -0.2 0.2 0.5
v 0.2 0.1 0.5
v 0.2 0.2 0.5
v 0.8 0.1 0.5
v 0.8 0.2 0.5
v -0.8 1.7 0.4
v -0.8 1.8 0.4
v -0.5 1.5 0.4
v -0.5 1.7 0.4
v -0.3 1.5 0.4
v -0.3 1.7 0.4
v 0.3 1.5 0.4
v 0.3 1.7 0.4
v 0.5 1.5 0.4
v 0.5 1.7 0.4
v 0.8 1.7 0.4
v 0.8 1.8 0.4
v -0.8 0.2 0.3
v -0.8 0.3 0.3
v -0.7 1.2 0.3
v -0.7 1.7 0.3
v -0.7 1.8 0.3
v -0.7 1.9 0.3
v -0.5 1.5 0.3
v -0.5 1.7 0.3
v -0.3 1.5 0.3
v -0.3 1.7 0.3
v -0.2 0.2 0.3
v -0.2 0.3 0.3
v 0.2 0.2 0.3
v 0.2 0.3 0.3
v 0.3 1.5 0.3
v 0.3 1.7 0.3
v 0.5 1.5 0.3
v 0.5 1.7 0.3
v 0.7 1.2 0.3
v 0.7 1.7 0.3
v 0.7 1.8 0.3
v 0.7 1.9 0.3
v 0.8 0.2 0.3
v 0.8 0.3 0.3
v -0.6 1.9 0.2
v -0.6 2 0.2
v 0.6 1.9 0.2
v 0.6 2 0.2
v -0.8 0.3 0.1
v -0.8 0.4 0.1
v -0.2 0.3 0.1
v -0.2 0.4 0.1
v 0.2 0.3 0.1
v 0.2 0.4 0.1
v 0.8 0.3 0.1
v 0.8 0.4 0.1
v -0.8 0.4 0
v -0.8 0.5 0
v -0.2 0.4 0
v -0.2 0.5 0
v 0.2 0.4 0
v 0.2 0.5 0
v 0.8 0.4 0
v 0.8 0.5 0
v -0.7 0.5 -0.1
v -0.7 1.2 -0.1
v -0.3 0.5 -0.1
v -0.3 0.9 -0.1
v 0.3 0.5 -0.1
v 0.3 0.9 -0.1
v 0.7 0.5 -0.1
v 0.7 1.2 -0.1
v -0.7 0.5 -0.5
v -0.7 1.2 -0.5
v -0.3 0.5 -0.5
v -0.3 0.9 -0.5
v 0.3 0.5 -0.5
v 0.3 0.9 -0.5
v 0.7 0.5 -0.5
v 0.7 1.2 -0.5
v -0.8 0 -0.6
v -0.8 0.3 -0.6
v -0.8 0.5 -0.6
v -0.6 1.9 -0.6
v -0.6 2 -0.6
v -0.2 0 -0.6
v -0.2 0.3 -0.6
v -0.2 0.5 -0.6
v 0.2 0 -0.6
v 0.2 0.3 -0.6
v 0.2 0.5 -0.6
v 0.6 1.9 -0.6
v 0.6 2 -0.6
v 0.8 0 -0.6
v 0.8 0.3 -0.6
v 0.8 0.5 -0.6
v -0.7 1.2 -0.7
v -0.7 1.7 -0.7
v -0.7 1.8 -0.7
v -0.7 1.9 -0.7
v 0.7 1.2 -0.7
v 0.7 1.7 -0.7
v 0.7 1.8 -0.7
v 0.7 1.9 -0.7
v -0.8 1.7 -0.8
v -0.8 1.8 -0.8
v 0.8 1.7 -0.8
v 0.8 1.8 -0.8
v -0.8 0 0.7
v -0.2 0 0.7
v 0.2 0 0.7
v 0.8 0 0.7
v -0.8 0 -0.6
v -0.2 0 -0.6
v 0.2 0 -0.6
v 0.8 0 -0.6
v -0.3 0.9 -0.1
v 0.3 0.9 -0.1
v -0.3 0.9 -0.5
v 0.3 0.9 -0.5
v -0.7 1.2 0.3
v 0.7 1.2 0.3
v -0.7 1.2 -0.1
v 0.7 1.2 -0.1
v -0.7 1.2 -0.5
v 0.7 1.2 -0.5
v -0.7 1.2 -0.7
v 0.7 1.2 -0.7
v -0.5 1.5 0.4
v -0.3 1.5 0.4
v 0.3 1.5 0.4
v 0.5 1.5 0.4
v -0.5 1.5 0.3
v -0.3 1.5 0.3
v 0.3 1.5 0.3
v 0.5 1.5 0.3
v -0.8 1.7 0.4
v -0.5 1.7 0.4
v -0.3 1.7 0.4
v 0.3 1.7 0.4
v 0.5 1.7 0.4
v 0.8 1.7 0.4
v -0.7 1.7 0.3
v -0.5 1.7 0.3
v -0.3 1.7 0.3
v 0.3 1.7 0.3
v 0.5 1.7 0.3
v 0.7 1.7 0.3
v -0.7 1.7 -0.7
v 0.7 1.7 -0.7
v -0.8 1.7 -0.8
v 0.8 1.7 -0.8
v -0.8 0.1 0.7
v -0.2 0.1 0.7
v 0.2 0.1 0.7
v 0.8 0.1 0.7
v -0.8 0.1 0.5
v -0.2 0.1 0.5
v 0.2 0.1 0.5
v 0.8 0.1 0.5
v -0.8 0.2 0.5
v -0.2 0.2 0.5
v 0.2 0.2 0.5
v 0.8 0.2 0.5
v -0.8 0.2 0.3
v -0.2 0.2 0.3
v 0.2 0.2 0.3
v 0.8 0.2 0.3
v -0.8 0.3 0.3
v -0.2 0.3 0.3
v 0.2 0.3 0.3
v 0.8 0.3 0.3
v -0.8 0.3 0.1
v -0.2 0.3 0.1
v 0.2 0.3 0.1
v 0.8 0.3 0.1
v -0.8 0.4 0.1
v -0.2 0.4 0.1
v 0.2 0.4 0.1
v 0.8 0.4 0.1
v -0.8 0.4 0
v -0.2 0.4 0
v 0.2 0.4 0
v 0.8 0.4 0
v -0.8 0.5 0
v -0.2 0.5 0
v 0.2 0.5 0
v 0.8 0.5 0
v -0.7 0.5 -0.1
v -0.3 0.5 -0.1
v 0.3 0.5 -0.1
v 0.7 0.5 -0.1
v -0.7 0.5 -0.5
v -0.3 0.5 -0.5
v 0.3 0.5 -0.5
v 0.7 0.5 -0.5
v -0.8 0.5 -0.6
v -0.2 0.5 -0.6
v 0.2 0.5 -0.6
v 0.8 0.5 -0.6
v -0.8 1.8 0.4
v 0.8 1.8 0.4
v -0.7 1.8 0.3
v 0.7 1.8 0.3
v -0.7 1.8 -0.7
v 0.7 1.8 -0.7
v -0.8 1.8 -0.8
v 0.8 1.8 -0.8
v -0.7 1.9 0.3
v 0.7 1.9 0.3
v -0.6 1.9 0.2
v 0.6 1.9 0.2
v -0.6 1.9 -0.6
v 0.6 1.9 -0.6
v -0.7 1.9 -0.7
v 0.7 1.9 -0.7
v -0.6 2 0.2
v 0.6 2 0.2
v -0.6 2 -0.6
v 0.6 2 -0.6

# faces
f 3/4/1 2/4/1 1/4/1
f 4/4/1 2/4/1 3/4/1
f 5/4/1 2/4/1 4/4/1
f 6/4/1 2/4/1 5/4/1
f 7/4/1 2/4/1 6/4/1
f 8/4/1 2/4/1 7/4/1
f 9/4/1 2/4/1 8/4/1
f 10/2/1 9/2/1 8/2/1
f 11/2/1 9/2/1 10/2/1
f 12/2/1 9/2/1 11/2/1
f 13/2/1 9/2/1 12/2/1
f 16/3/1 15/3/1 14/3/1
f 17/3/1 15/3/1 16/3/1
f 21/1/1 19/1/1 18/1/1
f 22/1/1 19/1/1 21/1/1
f 24/1/1 21/1/1 20/1/1
f 24/1/1 23/1/1 22/1/1
f 24/1/1 22/1/1 21/1/1
f 25/1/1 23/1/1 24/1/1
f 28/3/1 27/3/1 26/3/1
f 29/3/1 27/3/1 28/3/1
f 32/3/1 31/3/1 30/3/1
f 33/3/1 31/3/1 32/3/1
f 36/4/1 35/4/1 34/4/1
f 37/4/1 35/4/1 36/4/1
f 40/4/1 39/4/1 38/4/1
f 41/4/1 39/4/1 40/4/1
f 42/4/1 39/4/1 41/4/1
f 43/4/1 39/4/1 42/4/1
f 44/4/1 39/4/1 43/4/1
f 45/4/1 39/4/1 44/4/1
f 46/4/1 39/4/1 45/4/1
f 47/2/1 46/2/1 45/2/1
f 48/2/1 46/2/1 47/2/1
f 49/2/1 46/2/1 48/2/1
f 50/2/1 46/2/1 49/2/1
f 53/1/1 52/1/1 51/1/1
f 54/1/1 52/1/1 53/1/1
f 57/4/1 56/4/1 55/4/1
f 58/4/1 56/4/1 57/4/1
f 59/1/2 60/1/2 61/1/2
f 61/1/2 60/1/2 62/1/2
f 63/4/2 64/4/2 65/4/2
f 65/4/2 64/4/2 66/4/2
f 67/4/2 68/4/2 69/4/2
f 69/4/2 68/4/2 70/4/2
f 70/4/2 68/4/2 71/4/2
f 71/4/2 68/4/2 72/4/2
f 72/4/2 68/4/2 73/4/2
f 73/4/2 68/4/2 74/4/2
f 74/4/2 68/4/2 75/4/2
f 74/2/2 75/2/2 76/2/2
f 76/2/2 75/2/2 77/2/2
f 77/2/2 75/2/2 78/2/2
f 78/2/2 75/2/2 79/2/2
f 80/4/2 81/4/2 82/4/2
f 82/4/2 81/4/2 83/4/2
f 84/3/2 85/3/2 86/3/2
f 86/3/2 85/3/2 87/3/2
f 88/1/2 89/1/2 91/1/2
f 91/1/2 89/1/2 92/1/2
f 90/1/2 91/1/2 94/1/2
f 92/1/2 93/1/2 94/1/2
f 91/1/2 92/1/2 94/1/2
f 94/1/2 93/1/2 95/1/2
f 96/3/2 97/3/2 98/3/2
f 98/3/2 97/3/2 99/3/2
f 100/4/2 101/4/2 102/4/2
f 102/4/2 101/4/2 103/4/2
f 103/4/2 101/4/2 104/4/2
f 104/4/2 101/4/2 105/4/2
f 105/4/2 101/4/2 106/4/2
f 106/4/2 101/4/2 107/4/2
f 107/4/2 101/4/2 108/4/2
f 107/2/2 108/2/2 109/2/2
f 109/2/2 108/2/2 110/2/2
f 110/2/2 108/2/2 111/2/2
f 111/2/2 108/2/2 112/2/2
f 113/3/2 114/3/2 115/3/2
f 115/3/2 114/3/2 116/3/2
f 119/4/3 118/4/3 117/4/3
f 120/4/3 118/4/3 119/4/3
f 123/4/3 122/4/3 121/4/3
f 124/4/3 122/4/3 123/4/3
f 127/4/3 126/4/3 125/4/3
f 128/4/3 126/4/3 127/4/3
f 131/4/3 130/4/3 129/4/3
f 132/4/3 130/4/3 131/4/3
f 136/3/3 134/3/3 133/3/3
f 137/4/3 136/4/3 135/4/3
f 138/3/3 134/3/3 136/3/3
f 138/4/3 136/4/3 137/4/3
f 140/3/3 134/3/3 138/3/3
f 141/4/3 140/4/3 139/4/3
f 142/3/3 134/3/3 140/3/3
f 142/4/3 140/4/3 141/4/3
f 143/3/3 134/3/3 142/3/3
f 144/3/3 134/3/3 143/3/3
f 151/1/3 148/1/3 147/1/3
f 152/1/3 148/1/3 151/1/3
f 153/1/3 151/1/3 147/1/3
f 155/4/3 146/4/3 145/4/3
f 156/4/3 146/4/3 155/4/3
f 159/1/3 154/1/3 153/1/3
f 159/1/3 153/1/3 147/1/3
f 160/1/3 154/1/3 159/1/3
f 161/1/3 159/1/3 147/1/3
f 163/1/3 161/1/3 147/1/3
f 163/1/3 162/1/3 161/1/3
f 164/1/3 162/1/3 163/1/3
f 165/3/3 150/3/3 149/3/3
f 166/3/3 150/3/3 165/3/3
f 167/4/3 158/4/3 157/4/3
f 168/4/3 158/4/3 167/4/3
f 171/3/3 170/3/3 169/3/3
f 172/3/3 170/3/3 171/3/3
f 175/2/3 174/2/3 173/2/3
f 176/2/3 174/2/3 175/2/3
f 179/2/3 178/2/3 177/2/3
f 180/2/3 178/2/3 179/2/3
f 183/2/3 182/2/3 181/2/3
f 184/2/3 182/2/3 183/2/3
f 187/2/3 186/2/3 185/2/3
f 188/2/3 186/2/3 187/2/3
f 191/1/3 190/1/3 189/1/3
f 192/1/3 190/1/3 191/1/3
f 194/1/3 190/1/3 192/1/3
f 195/1/3 194/1/3 193/1/3
f 196/1/3 190/1/3 194/1/3
f 196/1/3 194/1/3 195/1/3
f 197/1/4 198/1/4 199/1/4
f 199/1/4 198/1/4 200/1/4
f 200/1/4 198/1/4 202/1/4
f 201/1/4 202/1/4 203/1/4
f 202/1/4 198/1/4 204/1/4
f 203/1/4 202/1/4 204/1/4
f 205/4/4 206/4/4 210/4/4
f 206/2/4 207/2/4 211/2/4
f 210/4/4 206/4/4 211/4/4
f 211/2/4 207/2/4 212/2/4
f 208/3/4 209/3/4 216/3/4
f 216/3/4 209/3/4 217/3/4
f 213/4/4 214/4/4 218/4/4
f 214/2/4 215/2/4 219/2/4
f 218/4/4 214/4/4 219/4/4
f 219/2/4 215/2/4 220/2/4
f 221/1/4 222/1/4 225/1/4
f 225/1/4 222/1/4 226/1/4
f 223/3/4 224/3/4 227/3/4
f 227/3/4 224/3/4 228/3/4
f 229/3/4 230/3/4 231/3/4
f 231/3/4 230/3/4 232/3/4
f 237/4/5 234/4/5 233/4/5
f 238/4/5 234/4/5 237/4/5
f 239/4/5 236/4/5 235/4/5
f 240/4/5 236/4/5 239/4/5
f 243/1/5 242/1/5 241/1/5
f 244/1/5 242/1/5 243/1/5
f 247/1/5 246/1/5 245/1/5
f 248/1/5 246/1/5 247/1/5
f 251/1/5 250/1/5 249/1/5
f 252/1/5 250/1/5 251/1/5
f 257/4/5 254/4/5 253/4/5
f 258/4/5 254/4/5 257/4/5
f 259/4/5 256/4/5 255/4/5
f 260/4/5 256/4/5 259/4/5
f 267/3/5 262/3/5 261/3/5
f 268/3/5 262/3/5 267/3/5
f 269/3/5 264/3/5 263/3/5
f 270/3/5 264/3/5 269/3/5
f 271/3/5 266/3/5 265/3/5
f 272/3/5 266/3/5 271/3/5
f 273/3/5 267/3/5 261/3/5
f 274/3/5 266/3/5 272/3/5
f 275/3/5 273/3/5 261/3/5
f 275/3/5 274/3/5 273/3/5
f 276/3/5 266/3/5 274/3/5
f 276/3/5 274/3/5 275/3/5
f 277/4/6 278/4/6 281/4/6
f 281/4/6 278/4/6 282/4/6
f 279/4/6 280/4/6 283/4/6
f 283/4/6 280/4/6 284/4/6
f 285/4/6 286/4/6 289/4/6
f 289/4/6 286/4/6 290/4/6
f 287/4/6 288/4/6 291/4/6
f 291/4/6 288/4/6 292/4/6
f 293/4/6 294/4/6 297/4/6
f 297/4/6 294/4/6 298/4/6
f 295/4/6 296/4/6 299/4/6
f 299/4/6 296/4/6 300/4/6
f 301/2/6 302/2/6 305/2/6
f 305/2/6 302/2/6 306/2/6
f 303/2/6 304/2/6 307/2/6
f 307/2/6 304/2/6 308/2/6
f 309/2/6 310/2/6 313/2/6
f 313/2/6 310/2/6 314/2/6
f 311/2/6 312/2/6 315/2/6
f 315/2/6 312/2/6 316/2/6
f 309/2/6 313/2/6 317/2/6
f 314/2/6 310/2/6 318/2/6
f 311/2/6 315/2/6 319/2/6
f 316/2/6 312/2/6 320/2/6
f 309/2/6 317/2/6 321/2/6
f 317/2/6 318/2/6 321/2/6
f 318/2/6 310/2/6 322/2/6
f 321/2/6 318/2/6 322/2/6
f 319/2/6 320/2/6 323/2/6
f 311/2/6 319/2/6 323/2/6
f 320/2/6 312/2/6 324/2/6
f 323/2/6 320/2/6 324/2/6
f 325/3/6 326/3/6 327/3/6
f 327/3/6 326/3/6 328/3/6
f 325/3/6 327/3/6 329/3/6
f 328/3/6 326/3/6 330/3/6
f 325/3/6 329/3/6 331/3/6
f 329/3/6 330/3/6 331/3/6
f 330/3/6 326/3/6 332/3/6
f 331/3/6 330/3/6 332/3/6
f 333/3/6 334/3/6 335/3/6
f 335/3/6 334/3/6 336/3/6
f 333/3/6 335/3/6 337/3/6
f 336/3/6 334/3/6 338/3/6
f 333/3/6 337/3/6 339/3/6
f 337/3/6 338/3/6 339/3/6
f 338/3/6 334/3/6 340/3/6
f 339/3/6 338/3/6 340/3/6
f 341/3/6 342/3/6 343/3/6
f 343/3/6 342/3/6 344/3/6
